<svg width="243" height="65" viewBox="0 0 243 65" fill="none" xmlns="http://www.w3.org/2000/svg">
<g clip-path="url(#clip0_6_6255)">
<path d="M55.658 55.481C68.276 42.7889 68.276 22.2111 55.658 9.51903C43.04 -3.17301 22.5823 -3.17301 9.96428 9.51903C-2.65368 22.2111 -2.65368 42.7889 9.96428 55.481C22.5823 68.173 43.04 68.173 55.658 55.481Z" fill="#0046AD"/>
<path d="M20.3557 25.4291L21.4472 36.2551C21.1294 36.2052 20.8344 36.0584 20.6022 35.8346C20.3699 35.6108 20.2115 35.3206 20.1483 35.0034L19.1877 25.5608C19.1802 25.48 19.1887 25.3985 19.2127 25.321C19.2366 25.2435 19.2756 25.1716 19.3274 25.1093C19.3791 25.047 19.4426 24.9957 19.5142 24.9582C19.5858 24.9208 19.664 24.8979 19.7444 24.891C19.8948 24.8874 20.041 24.9407 20.1542 25.0403C20.2674 25.1399 20.3393 25.2787 20.3557 25.4291Z" fill="#0046AD"/>
<path d="M21.9383 46.8834C21.9435 46.9455 21.9435 47.0079 21.9383 47.0701C21.9448 47.4036 21.8524 47.7316 21.6729 48.0122C21.4933 48.2927 21.2348 48.5132 20.9303 48.6454C20.6258 48.7776 20.289 48.8156 19.9629 48.7545C19.6368 48.6935 19.3362 48.5361 19.0993 48.3026C18.8624 48.069 18.7001 47.7698 18.633 47.443C18.5658 47.1163 18.5969 46.7769 18.7223 46.468C18.8477 46.1591 19.0617 45.8947 19.337 45.7087C19.6123 45.5226 19.9365 45.4232 20.2682 45.4231H21.7854C21.8618 46.1148 21.9164 46.6309 21.9383 46.8834Z" fill="#0046AD"/>
<path d="M39.3706 47.103C39.3706 46.7707 39.4686 46.4459 39.6521 46.1697C39.8356 45.8934 40.0964 45.6781 40.4016 45.551C40.7068 45.4238 41.0426 45.3906 41.3666 45.4554C41.6905 45.5202 41.9881 45.6802 42.2217 45.9151C42.4552 46.1501 42.6143 46.4494 42.6787 46.7753C42.7432 47.1011 42.7101 47.4389 42.5837 47.7459C42.4573 48.0528 42.2432 48.3152 41.9686 48.4998C41.6939 48.6844 41.371 48.7829 41.0407 48.7829C40.821 48.7844 40.6032 48.7419 40.3999 48.658C40.1966 48.5741 40.0119 48.4504 39.8566 48.2941C39.7012 48.1378 39.5782 47.9521 39.4948 47.7476C39.4114 47.5431 39.3692 47.324 39.3706 47.103Z" fill="#0046AD"/>
<path d="M125.266 44.9509V35.4095C125.389 32.6152 124.624 29.8542 123.083 27.5261C121.391 25.2094 118.455 23.6942 114.274 23.7161C111.07 23.6701 107.917 24.5258 105.17 26.1866C104.937 26.3365 104.761 26.5609 104.67 26.8238C104.579 27.0866 104.578 27.3727 104.668 27.6359L105.76 30.6992C105.821 30.8788 105.923 31.0417 106.058 31.175C106.192 31.3084 106.355 31.4086 106.535 31.4678C106.715 31.5282 106.906 31.5477 107.095 31.525C107.284 31.5022 107.465 31.4377 107.626 31.3361C109.42 30.2407 111.477 29.6562 113.575 29.6452C115.911 29.6452 116.85 30.3918 117.407 31.2372C117.841 31.9465 118.089 32.755 118.127 33.5869C113.597 33.7077 109.94 34.5531 107.212 36.222C105.807 37.0426 104.646 38.2273 103.851 39.6525C103.057 41.0777 102.656 42.6913 102.692 44.3251C102.681 46.52 103.509 48.6353 105.007 50.2322C105.901 51.1268 106.97 51.8256 108.146 52.2848C109.322 52.7439 110.579 52.9535 111.84 52.9002C114.393 52.9326 116.879 52.0796 118.88 50.4847C119.411 51.0874 120.1 51.5286 120.867 51.7583C123.05 52.505 124.589 52.505 125.353 51.8791C125.502 51.7579 125.612 51.5956 125.67 51.4122C125.728 51.2289 125.732 51.0325 125.681 50.847C125.365 48.8983 125.227 46.9249 125.266 44.9509ZM118.258 42.4695C118.246 42.8431 118.179 43.2129 118.062 43.5675C117.697 44.5994 117.015 45.4872 116.113 46.1014C115.212 46.7157 114.139 47.0243 113.051 46.9822C112.234 47.0211 111.432 46.7508 110.803 46.2246C110.488 45.909 110.246 45.5287 110.091 45.1099C109.937 44.691 109.874 44.2435 109.908 43.798C109.884 43.0223 110.114 42.2601 110.561 41.6277C111.009 40.9954 111.649 40.5275 112.386 40.2955C114.263 39.5919 116.255 39.2529 118.258 39.2964V42.4695Z" fill="#CD202C"/>
<path d="M214.971 44.951V35.4097C215.093 32.6154 214.329 29.8543 212.787 27.5262C211.096 25.2095 208.148 23.6943 203.968 23.7163C200.767 23.6717 197.618 24.5273 194.875 26.1867C194.638 26.3336 194.459 26.5572 194.365 26.8207C194.272 27.0842 194.271 27.3718 194.362 27.636L195.453 30.6994C195.517 30.8778 195.62 31.0395 195.754 31.1725C195.888 31.3056 196.05 31.4065 196.228 31.4679C196.409 31.5291 196.6 31.5491 196.789 31.5263C196.978 31.5035 197.159 31.4385 197.32 31.3362C199.122 30.24 201.185 29.6557 203.291 29.6453C205.627 29.6453 206.566 30.3919 207.122 31.2374C207.547 31.9509 207.794 32.7569 207.843 33.587C203.302 33.7078 199.656 34.5532 196.927 36.2222C195.524 37.0445 194.365 38.2296 193.57 39.6544C192.775 41.0792 192.374 42.6919 192.408 44.3252C192.418 46.5306 193.274 48.6469 194.799 50.2323C195.682 51.1145 196.734 51.8062 197.892 52.2649C199.051 52.7237 200.289 52.9399 201.533 52.9004C204.086 52.9309 206.572 52.0781 208.574 50.4848C209.105 51.0876 209.793 51.5287 210.561 51.7585C212.744 52.5051 214.283 52.5051 215.047 51.8793C215.194 51.7567 215.302 51.5938 215.358 51.4106C215.414 51.2273 215.416 51.0315 215.364 50.8472C215.066 48.8966 214.935 46.9241 214.971 44.951ZM207.963 42.4696C207.956 42.8438 207.89 43.2145 207.766 43.5676C207.403 44.6005 206.721 45.4893 205.819 46.1038C204.918 46.7183 203.844 47.0262 202.756 46.9823C201.961 47.0048 201.185 46.7355 200.573 46.2247C200.258 45.9091 200.016 45.5289 199.861 45.11C199.707 44.6912 199.644 44.2436 199.678 43.7982C199.656 43.0242 199.884 42.2639 200.329 41.6321C200.774 41.0003 201.411 40.5312 202.145 40.2956C204.022 39.5938 206.015 39.2548 208.017 39.2965L207.963 42.4696Z" fill="#CD202C"/>
<path d="M134.97 14.3614H130.505C130.192 14.3589 129.889 14.4812 129.665 14.7017C129.553 14.8116 129.464 14.9431 129.404 15.0885C129.344 15.2338 129.314 15.3898 129.316 15.5472V51.1105C129.311 51.2666 129.34 51.4218 129.401 51.5657C129.461 51.7095 129.551 51.8389 129.665 51.945C129.774 52.0577 129.905 52.1469 130.049 52.2073C130.194 52.2677 130.349 52.298 130.505 52.2963H134.97C135.126 52.298 135.281 52.2677 135.426 52.2073C135.57 52.1469 135.701 52.0577 135.81 51.945C135.926 51.8399 136.018 51.711 136.08 51.567C136.143 51.4231 136.173 51.2674 136.171 51.1105V15.5472C136.169 15.2302 136.044 14.9265 135.821 14.7017C135.591 14.4825 135.287 14.3607 134.97 14.3614Z" fill="#CD202C"/>
<path d="M144.477 14.2737C143.417 14.265 142.396 14.6796 141.639 15.4266C140.925 16.1713 140.533 17.1699 140.548 18.2045C140.538 19.225 140.931 20.2078 141.639 20.9384C142.004 21.3 142.438 21.5836 142.914 21.7723C143.391 21.961 143.9 22.0508 144.412 22.0364C145.467 22.0534 146.487 21.66 147.261 20.9384C147.616 20.5868 147.896 20.1658 148.084 19.7013C148.272 19.2369 148.363 18.7387 148.352 18.2374C148.358 18.1973 148.358 18.1567 148.352 18.1166C148.357 17.6061 148.259 17.0998 148.066 16.6279C147.872 16.156 147.586 15.7281 147.224 15.3696C146.863 15.0111 146.433 14.7294 145.961 14.5411C145.49 14.3529 144.985 14.2619 144.477 14.2737Z" fill="#CD202C"/>
<path d="M146.682 23.9358H142.229C142.069 23.9355 141.911 23.9685 141.764 24.0327C141.618 24.097 141.486 24.1911 141.377 24.3091C141.15 24.548 141.024 24.8674 141.028 25.1985V50.9789C141.024 51.3099 141.15 51.6293 141.377 51.8682C141.486 51.9862 141.618 52.0803 141.764 52.1446C141.911 52.2088 142.069 52.2419 142.229 52.2415H146.682C146.841 52.2445 146.999 52.2126 147.144 52.1482C147.289 52.0837 147.418 51.9882 147.523 51.8682C147.754 51.6304 147.883 51.3112 147.883 50.9789V25.2534C147.882 24.9234 147.757 24.606 147.534 24.364C147.429 24.237 147.3 24.1333 147.153 24.0596C147.006 23.9859 146.846 23.9437 146.682 23.9358Z" fill="#CD202C"/>
<path d="M180.608 23.9138C178.403 23.8444 176.245 24.5642 174.517 25.945C173.801 26.5005 173.159 27.1462 172.607 27.8665C171.872 26.6454 170.833 25.6385 169.592 24.9453C168.352 24.2521 166.953 23.8965 165.534 23.9138C163.115 23.8751 160.772 24.7665 158.984 26.4062C158.337 25.7192 157.546 25.1862 156.667 24.8462C155.789 24.5062 154.847 24.3677 153.909 24.4408C153.512 24.484 153.134 24.6359 152.817 24.88C152.704 25.0079 152.618 25.1574 152.563 25.3197C152.509 25.4819 152.488 25.6535 152.501 25.8242C152.653 27.8665 152.697 29.9746 152.697 32.5877V51.0556C152.698 51.3825 152.823 51.6966 153.046 51.934C153.155 52.0477 153.286 52.1383 153.43 52.2005C153.575 52.2627 153.73 52.2953 153.887 52.2964H158.253C158.41 52.2959 158.566 52.2636 158.71 52.2014C158.854 52.1391 158.985 52.0482 159.094 51.934C159.317 51.6966 159.442 51.3825 159.443 51.0556V35.7719C159.428 35.1602 159.521 34.5507 159.716 33.9712V33.8943C160.305 31.9619 161.986 30.1173 164.082 30.1502C164.641 30.1239 165.196 30.2447 165.694 30.5009C166.192 30.757 166.615 31.1395 166.92 31.6105C167.691 32.8964 168.07 34.3813 168.012 35.8817V51.0556C168.013 51.3825 168.138 51.6966 168.361 51.934C168.47 52.0477 168.601 52.1383 168.745 52.2005C168.889 52.2627 169.044 52.2953 169.201 52.2964H173.568C173.725 52.2959 173.88 52.2636 174.025 52.2014C174.169 52.1391 174.3 52.0482 174.408 51.934C174.632 51.6966 174.756 51.3825 174.758 51.0556V35.4095C174.761 34.7615 174.86 34.1176 175.052 33.4991C175.307 32.584 175.838 31.7707 176.57 31.1711C177.303 30.5714 178.203 30.2148 179.146 30.1502C179.736 30.1109 180.325 30.2331 180.852 30.5038C181.379 30.7744 181.822 31.1834 182.137 31.6874C182.963 33.227 183.342 34.97 183.228 36.7161V51.0556C183.229 51.3825 183.354 51.6966 183.577 51.934C183.799 52.1616 184.101 52.2918 184.418 52.2964H188.784C188.943 52.2962 189.1 52.264 189.246 52.2018C189.393 52.1395 189.525 52.0485 189.636 51.934C189.856 51.6955 189.977 51.3812 189.974 51.0556V36.1452C189.974 31.5227 188.697 28.3935 186.83 26.472C186.026 25.6358 185.057 24.9767 183.986 24.5363C182.915 24.096 181.765 23.884 180.608 23.9138Z" fill="#CD202C"/>
<path d="M242.293 50.3641L234.16 37.957L242.031 26.3514C242.155 26.163 242.227 25.945 242.24 25.7195C242.254 25.4939 242.208 25.2688 242.107 25.0668C242.008 24.8614 241.853 24.6889 241.659 24.5702C241.466 24.4514 241.242 24.3913 241.016 24.3971H236.278C236.08 24.3972 235.885 24.4476 235.712 24.5436C235.538 24.6395 235.391 24.778 235.285 24.946L231.835 30.3481C231.333 31.2045 230.82 32.0389 230.318 32.9173C229.827 32.0938 229.336 31.2594 228.779 30.403L225.286 24.9131C225.18 24.745 225.033 24.6066 224.859 24.5107C224.686 24.4147 224.491 24.3643 224.293 24.3641H219.337C219.112 24.3587 218.89 24.4177 218.696 24.5343C218.503 24.6509 218.347 24.8204 218.245 25.0229C218.141 25.2239 218.094 25.4496 218.107 25.6758C218.12 25.9021 218.195 26.1204 218.322 26.3075L226.137 38.0229L217.918 50.2763C217.794 50.4626 217.722 50.6788 217.708 50.9027C217.695 51.1265 217.741 51.3499 217.842 51.5499C217.94 51.7554 218.096 51.9278 218.289 52.0466C218.483 52.1654 218.706 52.2255 218.933 52.2197H223.834C224.038 52.2199 224.238 52.1675 224.416 52.0675C224.594 51.9675 224.743 51.8233 224.849 51.6487L228.386 45.9283C228.943 45.006 229.478 44.1386 230.013 43.2273C230.547 44.1386 231.104 45.0389 231.694 45.9612L235.285 51.6597C235.389 51.8306 235.535 51.9717 235.709 52.0697C235.883 52.1677 236.079 52.2194 236.278 52.2197H241.332C241.557 52.2251 241.78 52.1661 241.973 52.0495C242.166 51.9329 242.322 51.7634 242.424 51.5609C242.503 51.3662 242.532 51.1548 242.509 50.9458C242.486 50.7368 242.412 50.5369 242.293 50.3641Z" fill="#CD202C"/>
<path d="M102.616 18.7974C99.1293 16.5807 95.0936 15.3937 90.9689 15.3717C85.798 15.2116 80.7704 17.0956 76.9642 20.6201C75.1874 22.4001 73.7922 24.5276 72.8648 26.8711C71.9373 29.2147 71.4973 31.7246 71.5718 34.2459C71.5718 40.0212 73.5148 44.6437 76.855 47.7839C80.4602 50.9862 85.1469 52.6794 89.9538 52.5162C93.2864 52.616 96.6029 52.0139 99.6905 50.7484C99.9405 50.6397 100.144 50.4457 100.266 50.2007C100.388 49.9557 100.42 49.6753 100.356 49.4089L99.4286 45.9613C99.3828 45.7907 99.2991 45.6329 99.1838 45.4997C99.0684 45.3666 98.9244 45.2616 98.7627 45.1927C98.5935 45.1068 98.4065 45.062 98.2169 45.062C98.0273 45.062 97.8404 45.1068 97.6711 45.1927C95.5114 46.069 93.1993 46.5021 90.8707 46.4663C86.8974 46.4663 83.9283 45.2476 81.898 43.1724C79.8677 41.0972 78.7216 38.0229 78.7216 34.1141C78.7216 29.9199 79.9878 26.7907 82.1054 24.6826C83.3075 23.56 84.7205 22.6904 86.2613 22.1248C87.8021 21.5591 89.4398 21.3088 91.0781 21.3886C94.1206 21.4382 97.0872 22.3517 99.636 24.0238C99.7978 24.1156 99.9771 24.1717 100.162 24.1885C100.347 24.2053 100.534 24.1822 100.709 24.121C100.885 24.0597 101.045 23.9616 101.18 23.8331C101.315 23.7047 101.421 23.5489 101.492 23.376C101.83 22.7391 102.66 21.0922 103.02 20.4005C103.171 20.1323 103.213 19.8161 103.137 19.5175C103.062 19.2189 102.875 18.961 102.616 18.7974Z" fill="#CD202C"/>
<path d="M21.4145 36.2331C21.1055 36.1786 20.8199 36.0323 20.5942 35.8132C20.3686 35.594 20.2133 35.312 20.1483 35.0033L19.1877 25.5608C19.1802 25.48 19.1887 25.3985 19.2127 25.321C19.2366 25.2435 19.2756 25.1715 19.3274 25.1093C19.3791 25.047 19.4426 24.9956 19.5142 24.9582C19.5858 24.9207 19.664 24.8979 19.7444 24.891C19.902 24.8756 20.0593 24.9236 20.182 25.0243C20.3047 25.1251 20.3828 25.2706 20.3993 25.429L21.4145 36.2331Z" fill="#0046AD"/>
<path d="M21.9492 47.0701C21.9557 47.4036 21.8634 47.7316 21.6838 48.0122C21.5043 48.2927 21.2458 48.5132 20.9413 48.6454C20.6367 48.7776 20.3 48.8156 19.9739 48.7545C19.6478 48.6935 19.3471 48.5361 19.1103 48.3026C18.8734 48.069 18.7111 47.7698 18.6439 47.443C18.5768 47.1163 18.6079 46.7769 18.7333 46.468C18.8587 46.1591 19.0727 45.8947 19.348 45.7087C19.6233 45.5226 19.9475 45.4232 20.2792 45.4231H21.7964C21.8619 46.1258 21.9165 46.6309 21.9383 46.8834C21.9472 46.9452 21.9509 47.0076 21.9492 47.0701Z" fill="#0046AD"/>
<path d="M48.1468 19.2036C43.453 18.8632 28.2475 17.8092 19.2749 17.1833C16.404 16.9857 15.2797 16.0854 15.1596 14.12C15.135 13.6832 14.9389 13.2741 14.6145 12.9828C14.29 12.6914 13.8638 12.5416 13.4295 12.5664C12.9953 12.5911 12.5886 12.7884 12.2989 13.1147C12.0093 13.4411 11.8603 13.8699 11.885 14.3067C11.9194 15.0566 12.0666 15.797 12.3216 16.5026C13.1621 18.8083 15.3343 20.1808 19.1111 20.4553C24.0122 20.8176 46.695 22.3877 48.0376 22.4866C48.2592 22.457 48.4845 22.4806 48.6953 22.5552C48.9062 22.6299 49.0965 22.7536 49.2507 22.9163C49.405 23.079 49.5189 23.276 49.5831 23.4914C49.6474 23.7067 49.6601 23.9342 49.6204 24.1555C49.3693 26.5051 48.9436 30.6225 48.6925 32.9393C48.5615 34.2129 48.0485 34.8936 46.8914 34.9705L24.1541 36.343C23.6629 31.3143 23.1608 26.1318 23.0626 25.0997C23.0251 24.584 22.8851 24.081 22.6509 23.6206C22.4166 23.1603 22.0929 22.7519 21.6989 22.4197C21.3049 22.0874 20.8486 21.8381 20.3571 21.6865C19.8656 21.5349 19.3488 21.484 18.8374 21.5369C18.3259 21.5898 17.8303 21.7454 17.3797 21.9945C16.9292 22.2436 16.5329 22.5812 16.2144 22.9871C15.8959 23.3931 15.6616 23.8592 15.5254 24.3579C15.3892 24.8565 15.3539 25.3776 15.4216 25.8903C15.5635 27.2627 16.1748 33.2906 16.3822 35.3328C16.6005 37.6825 18.5653 39.3075 21.2397 39.6369C21.327 40.5153 21.4143 41.3717 21.4907 42.1622H20.29C18.9872 42.1622 17.7379 42.6828 16.8167 43.6094C15.8955 44.536 15.378 45.7927 15.378 47.1031C15.378 48.4135 15.8955 49.6702 16.8167 50.5968C17.7379 51.5234 18.9872 52.044 20.29 52.044C20.9375 52.044 21.5787 51.915 22.1763 51.6643C22.774 51.4137 23.3164 51.0464 23.7721 50.5837C24.6842 49.649 25.1939 48.3908 25.1911 47.0811C25.2018 46.913 25.2018 46.7443 25.1911 46.5761C25.1911 46.3675 25.1256 45.9722 25.082 45.4781H36.4343C36.2324 46.0149 36.1289 46.5841 36.1286 47.158C36.1286 48.4684 36.6461 49.7251 37.5673 50.6517C38.4885 51.5783 39.7379 52.0989 41.0407 52.0989C42.3434 52.0989 43.5928 51.5783 44.514 50.6517C45.4352 49.7251 45.9527 48.4684 45.9527 47.158C45.9507 46.5852 45.851 46.017 45.658 45.4781H48.6816C49.1159 45.4781 49.5323 45.3046 49.8394 44.9957C50.1465 44.6869 50.319 44.2679 50.319 43.8311C50.319 43.3943 50.1465 42.9754 49.8394 42.6666C49.5323 42.3577 49.1159 42.1842 48.6816 42.1842H24.7327C24.6454 41.3827 24.558 40.5153 24.4707 39.604L47.0443 38.2644C48.3167 38.2069 49.5207 37.6683 50.4152 36.7563C51.3098 35.8442 51.829 34.6261 51.869 33.3455C52.1419 30.8202 52.5458 27.109 52.7968 24.5617C53.0915 21.5643 51.2359 19.4342 48.1468 19.2036ZM20.1481 35.0034L19.1875 25.5609C19.18 25.4801 19.1885 25.3986 19.2125 25.3211C19.2365 25.2436 19.2754 25.1716 19.3272 25.1094C19.3789 25.0471 19.4424 24.9958 19.514 24.9583C19.5856 24.9208 19.6638 24.898 19.7442 24.8911C19.9019 24.8758 20.0592 24.9237 20.1818 25.0245C20.3045 25.1252 20.3826 25.2707 20.3992 25.4291L21.4907 36.2551C21.165 36.2137 20.8604 36.0707 20.6196 35.8462C20.3788 35.6217 20.2139 35.327 20.1481 35.0034ZM20.3118 48.772C20.0819 48.7908 19.8506 48.7614 19.6325 48.6858C19.4144 48.6101 19.2143 48.4898 19.0447 48.3325C18.8751 48.1752 18.7398 47.9843 18.6472 47.7717C18.5546 47.5592 18.5068 47.3297 18.5068 47.0976C18.5068 46.8656 18.5546 46.636 18.6472 46.4235C18.7398 46.211 18.8751 46.02 19.0447 45.8627C19.2143 45.7054 19.4144 45.5851 19.6325 45.5095C19.8506 45.4338 20.0819 45.4045 20.3118 45.4232H21.8291C21.8946 46.1259 21.9492 46.631 21.971 46.8835C21.9763 46.9456 21.9763 47.0081 21.971 47.0702C21.9755 47.2958 21.9345 47.5201 21.8504 47.7293C21.7662 47.9386 21.6408 48.1285 21.4816 48.2876C21.3224 48.4467 21.1328 48.5716 20.9243 48.6549C20.7157 48.7382 20.4925 48.778 20.2682 48.772H20.3118ZM41.0516 45.4232C41.3819 45.4232 41.7048 45.5217 41.9794 45.7063C42.2541 45.8909 42.4681 46.1533 42.5945 46.4602C42.7209 46.7672 42.754 47.105 42.6896 47.4308C42.6251 47.7567 42.4661 48.056 42.2325 48.291C41.9989 48.5259 41.7014 48.6859 41.3774 48.7507C41.0534 48.8155 40.7176 48.7823 40.4125 48.6551C40.1073 48.528 39.8465 48.3127 39.6629 48.0364C39.4794 47.7601 39.3815 47.4354 39.3815 47.1031C39.3815 46.6595 39.5559 46.2338 39.8668 45.9191C40.1776 45.6044 40.5996 45.4261 41.0407 45.4232H41.0516Z" fill="white"/>
<path d="M42.7108 47.103C42.7108 47.4352 42.6128 47.76 42.4293 48.0363C42.2458 48.3126 41.985 48.5279 41.6798 48.655C41.3747 48.7822 41.0388 48.8154 40.7149 48.7506C40.3909 48.6858 40.0933 48.5258 39.8598 48.2909C39.6262 48.0559 39.4671 47.7566 39.4027 47.4307C39.3383 47.1049 39.3713 46.7671 39.4977 46.4601C39.6241 46.1532 39.8382 45.8908 40.1128 45.7062C40.3875 45.5216 40.7104 45.4231 41.0407 45.4231C41.4828 45.426 41.9059 45.6039 42.2185 45.9183C42.5311 46.2327 42.7079 46.6583 42.7108 47.103Z" fill="#0046AD"/>
<path d="M20.3557 25.4291L21.4472 36.2551C21.1294 36.2052 20.8344 36.0584 20.6022 35.8346C20.3699 35.6108 20.2115 35.3206 20.1483 35.0034L19.1877 25.5608C19.1802 25.48 19.1887 25.3985 19.2127 25.321C19.2366 25.2435 19.2756 25.1716 19.3274 25.1093C19.3791 25.047 19.4426 24.9957 19.5142 24.9582C19.5858 24.9208 19.664 24.8979 19.7444 24.891C19.8948 24.8874 20.041 24.9407 20.1542 25.0403C20.2674 25.1399 20.3393 25.2787 20.3557 25.4291Z" fill="#0046AD"/>
<path d="M21.9383 46.8834C21.9435 46.9455 21.9435 47.0079 21.9383 47.0701C21.9448 47.4036 21.8524 47.7316 21.6729 48.0122C21.4933 48.2927 21.2348 48.5132 20.9303 48.6454C20.6258 48.7776 20.289 48.8156 19.9629 48.7545C19.6368 48.6935 19.3362 48.5361 19.0993 48.3026C18.8624 48.069 18.7001 47.7698 18.633 47.443C18.5658 47.1163 18.5969 46.7769 18.7223 46.468C18.8477 46.1591 19.0617 45.8947 19.337 45.7087C19.6123 45.5226 19.9365 45.4232 20.2682 45.4231H21.7854C21.8618 46.1148 21.9164 46.6309 21.9383 46.8834Z" fill="#0046AD"/>
<path d="M39.3706 47.103C39.3706 46.7707 39.4686 46.4459 39.6521 46.1697C39.8356 45.8934 40.0964 45.6781 40.4016 45.551C40.7068 45.4238 41.0426 45.3906 41.3666 45.4554C41.6905 45.5202 41.9881 45.6802 42.2217 45.9151C42.4552 46.1501 42.6143 46.4494 42.6787 46.7753C42.7432 47.1011 42.7101 47.4389 42.5837 47.7459C42.4573 48.0528 42.2432 48.3152 41.9686 48.4998C41.6939 48.6844 41.371 48.7829 41.0407 48.7829C40.821 48.7844 40.6032 48.7419 40.3999 48.658C40.1966 48.5741 40.0119 48.4504 39.8566 48.2941C39.7012 48.1378 39.5782 47.9521 39.4948 47.7476C39.4114 47.5431 39.3692 47.324 39.3706 47.103Z" fill="#0046AD"/>
</g>
<defs>
<clipPath id="clip0_6_6255">
<rect width="242" height="65" fill="white" transform="translate(0.5)"/>
</clipPath>
</defs>
</svg>
