<svg width="40" height="38" viewBox="0 0 40 38" fill="none" xmlns="http://www.w3.org/2000/svg">
<path d="M34.9704 7.02181C30.4512 6.70238 15.8112 5.71319 7.17223 5.12586C4.40817 4.94039 3.32568 4.09546 3.21007 2.25103C3.18638 1.84111 2.99756 1.45721 2.68517 1.18378C2.37277 0.910344 1.96238 0.76978 1.54428 0.793009C1.12618 0.816238 0.734612 1.00136 0.455723 1.30764C0.176833 1.61392 0.0334654 2.01628 0.0571579 2.4262C0.0903351 3.13001 0.232072 3.82483 0.477545 4.48701C1.28679 6.65086 3.37822 7.93887 7.01458 8.19647C11.7334 8.53651 33.5726 10.01 34.8653 10.1027C35.0786 10.075 35.2956 10.0971 35.4986 10.1672C35.7016 10.2373 35.8848 10.3534 36.0333 10.506C36.1818 10.6587 36.2915 10.8436 36.3534 11.0457C36.4152 11.2478 36.4275 11.4613 36.3892 11.6689C36.1475 13.874 35.7376 17.738 35.4959 19.9122C35.3698 21.1075 34.8758 21.7463 33.7618 21.8184L11.8701 23.1064C11.3971 18.3872 10.9137 13.5237 10.8191 12.5551C10.783 12.0711 10.6482 11.5991 10.4227 11.167C10.1971 10.735 9.88548 10.3517 9.50614 10.04C9.12679 9.72818 8.68748 9.4942 8.21423 9.3519C7.74098 9.2096 7.24342 9.16186 6.75101 9.21152C6.2586 9.26118 5.78136 9.40722 5.34756 9.64099C4.91377 9.87476 4.53223 10.1915 4.22557 10.5725C3.9189 10.9534 3.69333 11.3909 3.56222 11.8589C3.43111 12.3269 3.39714 12.8159 3.4623 13.297C3.59893 14.585 4.18747 20.2419 4.38715 22.1585C4.59735 24.3635 6.48909 25.8885 9.06397 26.1977C9.14805 27.022 9.23213 27.8257 9.30569 28.5676H8.14963C6.89532 28.5676 5.69239 29.0561 4.80546 29.9257C3.91853 30.7953 3.42026 31.9747 3.42026 33.2044C3.42026 34.4342 3.91853 35.6136 4.80546 36.4831C5.69239 37.3527 6.89532 37.8412 8.14963 37.8412C8.77308 37.8413 9.39036 37.7202 9.96581 37.485C10.5412 37.2497 11.0634 36.905 11.5022 36.4708C12.3804 35.5936 12.8712 34.4129 12.8685 33.1838C12.8787 33.026 12.8787 32.8677 12.8685 32.7098C12.8685 32.514 12.8054 32.1431 12.7634 31.6794H23.6935C23.4991 32.1832 23.3994 32.7173 23.3992 33.2559C23.3992 34.4857 23.8975 35.6651 24.7844 36.5347C25.6713 37.4042 26.8743 37.8928 28.1286 37.8928C29.3829 37.8928 30.5858 37.4042 31.4727 36.5347C32.3597 35.6651 32.8579 34.4857 32.8579 33.2559C32.856 32.7184 32.76 32.1851 32.5742 31.6794H35.4854C35.9035 31.6794 36.3044 31.5166 36.6001 31.2267C36.8957 30.9369 37.0618 30.5437 37.0618 30.1338C37.0618 29.7239 36.8957 29.3308 36.6001 29.0409C36.3044 28.751 35.9035 28.5882 35.4854 28.5882H12.4271C12.343 27.836 12.2589 27.022 12.1748 26.1667L33.9089 24.9096C35.134 24.8557 36.2932 24.3502 37.1545 23.4943C38.0158 22.6384 38.5157 21.4952 38.5542 20.2934C38.8169 17.9235 39.2058 14.4407 39.4475 12.0502C39.7313 9.23718 37.9446 7.23819 34.9704 7.02181ZM8.013 21.8493L7.08815 12.9879C7.08093 12.912 7.0891 12.8355 7.11218 12.7628C7.13526 12.6901 7.17279 12.6226 7.22262 12.5641C7.27245 12.5057 7.33358 12.4575 7.4025 12.4224C7.47141 12.3872 7.54674 12.3658 7.62414 12.3593C7.77592 12.3449 7.92737 12.3899 8.04548 12.4844C8.16359 12.579 8.2388 12.7155 8.25472 12.8642L9.30569 23.024C8.99209 22.9851 8.69878 22.8509 8.46694 22.6402C8.2351 22.4295 8.07636 22.153 8.013 21.8493ZM8.17065 34.7706C7.94926 34.7882 7.72656 34.7607 7.51658 34.6897C7.30661 34.6187 7.1139 34.5058 6.95063 34.3582C6.78735 34.2105 6.65704 34.0313 6.56791 33.8319C6.47879 33.6324 6.43277 33.417 6.43277 33.1993C6.43277 32.9815 6.47879 32.7661 6.56791 32.5666C6.65704 32.3672 6.78735 32.188 6.95063 32.0403C7.1139 31.8927 7.30661 31.7798 7.51658 31.7089C7.72656 31.6379 7.94926 31.6103 8.17065 31.6279H9.6315C9.69455 32.2873 9.7471 32.7613 9.76812 32.9983C9.77319 33.0566 9.77319 33.1152 9.76812 33.1735C9.77246 33.3853 9.73294 33.5957 9.65195 33.7921C9.57096 33.9885 9.45018 34.1667 9.29692 34.316C9.14365 34.4653 8.9611 34.5826 8.76029 34.6607C8.55947 34.7388 8.34458 34.7762 8.12861 34.7706H8.17065ZM28.1391 31.6279C28.4571 31.6279 28.768 31.7204 29.0324 31.8936C29.2969 32.0668 29.503 32.313 29.6247 32.6011C29.7464 32.8892 29.7782 33.2062 29.7162 33.512C29.6541 33.8178 29.501 34.0987 29.2761 34.3192C29.0512 34.5397 28.7647 34.6898 28.4528 34.7506C28.1409 34.8115 27.8176 34.7802 27.5237 34.6609C27.2299 34.5416 26.9788 34.3395 26.8021 34.0803C26.6254 33.821 26.5311 33.5162 26.5311 33.2044C26.5311 32.7881 26.6991 32.3886 26.9983 32.0933C27.2976 31.7979 27.7039 31.6306 28.1286 31.6279H28.1391Z" fill="white"/>
</svg>
